<?xml version="1.0" encoding="UTF-8" standalone="no"?>
<!DOCTYPE svg PUBLIC "-//W3C//DTD SVG 1.1//EN"
 "http://www.w3.org/Graphics/SVG/1.1/DTD/svg11.dtd">
<!-- Generated by graphviz version 2.40.1 (20161225.0304)
 -->
<!-- Title: %3 Pages: 1 -->
<svg width="587pt" height="299pt"
 viewBox="0.00 0.00 587.00 299.00" xmlns="http://www.w3.org/2000/svg" xmlns:xlink="http://www.w3.org/1999/xlink">
<g id="graph0" class="graph" transform="scale(1 1) rotate(0) translate(4 295)">
<title>%3</title>
<polygon fill="#ffffff" stroke="transparent" points="-4,4 -4,-295 583,-295 583,4 -4,4"/>
<g id="clust1" class="cluster">
<title>cluster1</title>
<polygon fill="#d3d3d3" stroke="#000000" points="329,-8 329,-155 451,-155 451,-8 329,-8"/>
<text text-anchor="middle" x="390" y="-15.8" font-family="Times,serif" font-size="14.00" fill="#000000">lang.ypp</text>
</g>
<g id="clust2" class="cluster">
<title>cluster2</title>
<polygon fill="#d3d3d3" stroke="#000000" points="459,-8 459,-83 571,-83 571,-8 459,-8"/>
<text text-anchor="middle" x="515" y="-15.8" font-family="Times,serif" font-size="14.00" fill="#000000">lang.l</text>
</g>
<!-- object.cpp -->
<g id="node1" class="node">
<title>object.cpp</title>
<text text-anchor="start" x="8" y="-198.3" font-family="Times,serif" text-decoration="underline" font-size="14.00" fill="#000000">object.cpp</text>
</g>
<!-- object.h -->
<g id="node7" class="node">
<title>object.h</title>
<text text-anchor="middle" x="118" y="-269.3" font-family="Times,serif" font-size="14.00" fill="#000000">object.h</text>
</g>
<!-- object.cpp&#45;&gt;object.h -->
<g id="edge1" class="edge">
<title>object.cpp&#45;&gt;object.h</title>
<path fill="none" stroke="#000000" d="M63.421,-219.1686C72.1529,-227.781 82.7317,-238.2149 92.2423,-247.5952"/>
<polygon fill="#000000" stroke="#000000" points="90.0075,-250.3069 99.5849,-254.8372 94.923,-245.3231 90.0075,-250.3069"/>
</g>
<!-- ast.cpp -->
<g id="node2" class="node">
<title>ast.cpp</title>
<text text-anchor="start" x="130" y="-126.3" font-family="Times,serif" text-decoration="underline" font-size="14.00" fill="#000000">ast.cpp</text>
</g>
<!-- ast.cpp&#45;&gt;object.h -->
<g id="edge3" class="edge">
<title>ast.cpp&#45;&gt;object.h</title>
<path fill="none" stroke="#000000" d="M151.1873,-147.2377C144.6773,-171.9072 133.0047,-216.1402 125.3818,-245.0269"/>
<polygon fill="#000000" stroke="#000000" points="121.9411,-244.3483 122.7736,-254.9104 128.7094,-246.1344 121.9411,-244.3483"/>
</g>
<!-- ast.h -->
<g id="node8" class="node">
<title>ast.h</title>
<text text-anchor="middle" x="211" y="-197.3" font-family="Times,serif" font-size="14.00" fill="#000000">ast.h</text>
</g>
<!-- ast.cpp&#45;&gt;ast.h -->
<g id="edge9" class="edge">
<title>ast.cpp&#45;&gt;ast.h</title>
<path fill="none" stroke="#000000" d="M169.8788,-147.1686C176.2136,-155.4614 183.8384,-165.443 190.7926,-174.5467"/>
<polygon fill="#000000" stroke="#000000" points="188.0825,-176.7647 196.9343,-182.5867 193.6452,-172.5153 188.0825,-176.7647"/>
</g>
<!-- intern.h -->
<g id="node9" class="node">
<title>intern.h</title>
<text text-anchor="middle" x="211" y="-269.3" font-family="Times,serif" font-size="14.00" fill="#000000">intern.h</text>
</g>
<!-- ast.cpp&#45;&gt;intern.h -->
<g id="edge6" class="edge">
<title>ast.cpp&#45;&gt;intern.h</title>
<path fill="none" stroke="#000000" d="M157.7905,-147.1917C160.0888,-165.8125 165.0345,-195.2992 175,-219 178.9544,-228.4047 184.6152,-237.9121 190.2805,-246.273"/>
<polygon fill="#000000" stroke="#000000" points="187.4816,-248.3769 196.1147,-254.5185 193.1959,-244.3336 187.4816,-248.3769"/>
</g>
<!-- intern.cpp -->
<g id="node3" class="node">
<title>intern.cpp</title>
<text text-anchor="start" x="264" y="-198.3" font-family="Times,serif" text-decoration="underline" font-size="14.00" fill="#000000">intern.cpp</text>
</g>
<!-- intern.cpp&#45;&gt;intern.h -->
<g id="edge4" class="edge">
<title>intern.cpp&#45;&gt;intern.h</title>
<path fill="none" stroke="#000000" d="M278.2892,-219.1686C267.204,-228.0368 253.7046,-238.8363 241.7148,-248.4282"/>
<polygon fill="#000000" stroke="#000000" points="239.3258,-245.8571 233.7035,-254.8372 243.6987,-251.3232 239.3258,-245.8571"/>
</g>
<!-- parse.cpp -->
<g id="node4" class="node">
<title>parse.cpp</title>
<text text-anchor="start" x="224" y="-126.3" font-family="Times,serif" text-decoration="underline" font-size="14.00" fill="#000000">parse.cpp</text>
</g>
<!-- parse.cpp&#45;&gt;ast.h -->
<g id="edge10" class="edge">
<title>parse.cpp&#45;&gt;ast.h</title>
<path fill="none" stroke="#000000" d="M246.8876,-147.1686C241.4719,-155.2921 234.9758,-165.0363 229.0079,-173.9882"/>
<polygon fill="#000000" stroke="#000000" points="225.9104,-172.3247 223.2755,-182.5867 231.7347,-176.2077 225.9104,-172.3247"/>
</g>
<!-- parse.h -->
<g id="node10" class="node">
<title>parse.h</title>
<text text-anchor="middle" x="399" y="-197.3" font-family="Times,serif" font-size="14.00" fill="#000000">parse.h</text>
</g>
<!-- parse.cpp&#45;&gt;parse.h -->
<g id="edge7" class="edge">
<title>parse.cpp&#45;&gt;parse.h</title>
<path fill="none" stroke="#000000" d="M294.3279,-147.1686C312.6493,-156.5911 335.2102,-168.1938 354.6895,-178.2117"/>
<polygon fill="#000000" stroke="#000000" points="353.1898,-181.3761 363.6834,-182.8372 356.3912,-175.1511 353.1898,-181.3761"/>
</g>
<!-- lang.tab.cpp -->
<g id="node5" class="node">
<title>lang.tab.cpp</title>
<text text-anchor="start" x="345.5" y="-54.3" font-family="Times,serif" text-decoration="underline" font-size="14.00" fill="#000000">lang.tab.cpp</text>
</g>
<!-- lang.tab.hpp -->
<g id="node11" class="node">
<title>lang.tab.hpp</title>
<text text-anchor="middle" x="390" y="-125.3" font-family="Times,serif" font-size="14.00" fill="#000000">lang.tab.hpp</text>
</g>
<!-- lang.tab.cpp&#45;&gt;lang.tab.hpp -->
<g id="edge12" class="edge">
<title>lang.tab.cpp&#45;&gt;lang.tab.hpp</title>
<path fill="none" stroke="#000000" d="M390,-75.1686C390,-82.869 390,-92.0257 390,-100.5834"/>
<polygon fill="#000000" stroke="#000000" points="386.5001,-100.5867 390,-110.5867 393.5001,-100.5868 386.5001,-100.5867"/>
</g>
<!-- lang.yy.cpp -->
<g id="node6" class="node">
<title>lang.yy.cpp</title>
<text text-anchor="start" x="474.5" y="-54.3" font-family="Times,serif" text-decoration="underline" font-size="14.00" fill="#000000">lang.yy.cpp</text>
</g>
<!-- lang.yy.cpp&#45;&gt;lang.tab.hpp -->
<g id="edge13" class="edge">
<title>lang.yy.cpp&#45;&gt;lang.tab.hpp</title>
<path fill="none" stroke="#000000" d="M483.4572,-75.1686C467.3209,-84.4632 447.5014,-95.8792 430.2728,-105.8029"/>
<polygon fill="#000000" stroke="#000000" points="428.4511,-102.813 421.5327,-110.8372 431.945,-108.8788 428.4511,-102.813"/>
</g>
<!-- ast.h&#45;&gt;object.h -->
<g id="edge2" class="edge">
<title>ast.h&#45;&gt;object.h</title>
<path fill="none" stroke="#000000" d="M187.5322,-219.1686C175.9673,-228.1221 161.8596,-239.0442 149.3817,-248.7045"/>
<polygon fill="#000000" stroke="#000000" points="147.225,-245.9479 141.4603,-254.8372 151.5102,-251.4829 147.225,-245.9479"/>
</g>
<!-- ast.h&#45;&gt;intern.h -->
<g id="edge5" class="edge">
<title>ast.h&#45;&gt;intern.h</title>
<path fill="none" stroke="#000000" d="M211,-219.1686C211,-226.869 211,-236.0257 211,-244.5834"/>
<polygon fill="#000000" stroke="#000000" points="207.5001,-244.5867 211,-254.5867 214.5001,-244.5868 207.5001,-244.5867"/>
</g>
<!-- lang.tab.hpp&#45;&gt;ast.h -->
<g id="edge11" class="edge">
<title>lang.tab.hpp&#45;&gt;ast.h</title>
<path fill="none" stroke="#000000" d="M338.193,-147.1101C313.0536,-156.2318 282.3209,-167.8712 247.741,-182.8511"/>
<polygon fill="#000000" stroke="#000000" points="246.1379,-179.7321 238.3798,-186.9475 248.9442,-186.145 246.1379,-179.7321"/>
</g>
<!-- lang.tab.hpp&#45;&gt;parse.h -->
<g id="edge8" class="edge">
<title>lang.tab.hpp&#45;&gt;parse.h</title>
<path fill="none" stroke="#000000" d="M392.2711,-147.1686C393.2336,-154.869 394.3782,-164.0257 395.4479,-172.5834"/>
<polygon fill="#000000" stroke="#000000" points="391.9849,-173.0981 396.6983,-182.5867 398.9309,-172.2298 391.9849,-173.0981"/>
</g>
</g>
</svg>
